<svg xmlns="http://www.w3.org/2000/svg" viewBox="0 0 650 220" width="100%" height="100%">
  <!-- Ramaiah Sun & Emblem -->
  <g transform="translate(30, 15)">
    <circle cx="95" cy="95" r="85" fill="#8C1D40" />
    <circle cx="95" cy="95" r="75" fill="#ffffff" />
    <!-- Sunburst Radiance -->
    <path d="M 95,35 L 98,65 L 125,45 L 110,72 L 140,70 L 115,88 L 145,100 L 115,108 L 138,125 L 108,122 L 120,150 L 98,128 L 95,155 L 92,128 L 70,150 L 82,122 L 52,125 L 75,108 L 45,100 L 75,88 L 50,70 L 80,72 L 65,45 L 92,65 Z" fill="#FFC627"/>
    <circle cx="95" cy="95" r="22" fill="#8C1D40"/>
    <text x="95" y="102" font-family="'Times New Roman', serif" font-size="18" font-weight="bold" fill="#ffffff" text-anchor="middle">R</text>
  </g>
  <!-- Text Block -->
  <text x="215" y="75" font-family="'Times New Roman', Georgia, serif" font-size="52" font-weight="900" fill="#8C1D40" letter-spacing="2">RAMAIAH</text>
  <line x1="215" y1="92" x2="620" y2="92" stroke="#FFC627" stroke-width="3.5" />
  <text x="215" y="128" font-family="'Times New Roman', Georgia, serif" font-size="24" font-weight="bold" fill="#333333">Medical College</text>
  <text x="215" y="160" font-family="Arial, sans-serif" font-size="14" font-weight="bold" fill="#8C1D40" letter-spacing="2">MSRIT CAMPUS • BANGALORE</text>
</svg>
